


<svg width="48" height="48" viewBox="0 0 48 48" fill="none" xmlns="http://www.w3.org/2000/svg">
<rect y="0.000610352" width="48" height="48" rx="24" fill="#003F7C"/>
<mask id="mask0_1278_960"  maskUnits="userSpaceOnUse" x="14" y="14" width="20" height="21">
<rect x="34" y="34.0006" width="20" height="20" transform="rotate(-180 34 34.0006)" fill="#D9D9D9"/>
</mask>
<g mask="url(#mask0_1278_960)">
<path d="M24.8333 20.5213L24.8333 29.8338C24.8333 30.0699 24.7535 30.2678 24.5938 30.4275C24.434 30.5873 24.2361 30.6671 24 30.6671C23.7639 30.6671 23.566 30.5873 23.4063 30.4275C23.2465 30.2678 23.1667 30.0699 23.1667 29.8338L23.1667 20.5213L19.0833 24.6046C18.9167 24.7713 18.7222 24.8511 18.5 24.8442C18.2778 24.8373 18.0833 24.7504 17.9167 24.5838C17.7639 24.4171 17.684 24.2227 17.6771 24.0004C17.6701 23.7782 17.75 23.5838 17.9167 23.4171L23.4167 17.9171C23.5 17.8338 23.5903 17.7748 23.6875 17.74C23.7847 17.7053 23.8889 17.6879 24 17.6879C24.1111 17.6879 24.2153 17.7053 24.3125 17.74C24.4097 17.7748 24.5 17.8338 24.5833 17.9171L30.0833 23.4171C30.2361 23.5699 30.3125 23.7609 30.3125 23.99C30.3125 24.2192 30.2361 24.4171 30.0833 24.5838C29.9167 24.7504 29.7188 24.8338 29.4896 24.8338C29.2604 24.8338 29.0625 24.7504 28.8958 24.5838L24.8333 20.5213Z" fill="white"/>
</g>
</svg>
