<svg width="48" height="48" viewBox="0 0 48 48" fill="none" xmlns="http://www.w3.org/2000/svg">
<rect y="0.000183105" width="48" height="48" rx="24" fill="#F3F5F6"/>
<mask id="mask0_1278_9" maskUnits="userSpaceOnUse" x="14" y="14" width="20" height="21">
<rect x="14" y="14.0002" width="20" height="20" fill="#D9D9D9"/>
</mask>
<g mask="url(#mask0_1278_9)">
<path d="M23.1667 27.4795V18.167C23.1667 17.9308 23.2465 17.7329 23.4062 17.5732C23.566 17.4135 23.7639 17.3336 24 17.3336C24.2361 17.3336 24.434 17.4135 24.5938 17.5732C24.7535 17.7329 24.8333 17.9308 24.8333 18.167V27.4795L28.9167 23.3961C29.0833 23.2295 29.2778 23.1496 29.5 23.1565C29.7222 23.1635 29.9167 23.2503 30.0833 23.417C30.2361 23.5836 30.316 23.7781 30.3229 24.0003C30.3299 24.2225 30.25 24.417 30.0833 24.5836L24.5833 30.0836C24.5 30.167 24.4097 30.226 24.3125 30.2607C24.2153 30.2954 24.1111 30.3128 24 30.3128C23.8889 30.3128 23.7847 30.2954 23.6875 30.2607C23.5903 30.226 23.5 30.167 23.4167 30.0836L17.9167 24.5836C17.7639 24.4308 17.6875 24.2399 17.6875 24.0107C17.6875 23.7815 17.7639 23.5836 17.9167 23.417C18.0833 23.2503 18.2812 23.167 18.5104 23.167C18.7396 23.167 18.9375 23.2503 19.1042 23.417L23.1667 27.4795Z" fill="#262626"/>
</g>
</svg>