<svg xmlns="http://www.w3.org/2000/svg" width="40" height="40" viewBox="0 0 40 40" fill="none">
<mask id="mask0_1013_325" style="mask-type:alpha" maskUnits="userSpaceOnUse" x="0" y="0" width="40" height="40">
<rect width="40" height="40" fill="#D9D9D9"/>
</mask>
<g mask="url(#mask0_1013_325)">
<path d="M10 36.6667C8.61111 36.6667 7.43056 36.1805 6.45833 35.2083C5.48611 34.2361 5 33.0555 5 31.6667V30C5 29.0833 5.32639 28.2986 5.97917 27.6458C6.63194 26.9931 7.41667 26.6667 8.33333 26.6667H10V6.66666C10 5.74999 10.3264 4.96527 10.9792 4.31249C11.6319 3.65972 12.4167 3.33333 13.3333 3.33333H31.6667C32.5833 3.33333 33.3681 3.65972 34.0208 4.31249C34.6736 4.96527 35 5.74999 35 6.66666V31.6667C35 33.0555 34.5139 34.2361 33.5417 35.2083C32.5694 36.1805 31.3889 36.6667 30 36.6667H10ZM30 33.3333C30.4722 33.3333 30.8681 33.1736 31.1875 32.8542C31.5069 32.5347 31.6667 32.1389 31.6667 31.6667V6.66666H13.3333V26.6667H25C25.9167 26.6667 26.7014 26.9931 27.3542 27.6458C28.0069 28.2986 28.3333 29.0833 28.3333 30V31.6667C28.3333 32.1389 28.4931 32.5347 28.8125 32.8542C29.1319 33.1736 29.5278 33.3333 30 33.3333ZM16.6667 15C16.1944 15 15.7986 14.8403 15.4792 14.5208C15.1597 14.2014 15 13.8056 15 13.3333C15 12.8611 15.1597 12.4653 15.4792 12.1458C15.7986 11.8264 16.1944 11.6667 16.6667 11.6667H28.3333C28.8056 11.6667 29.2014 11.8264 29.5208 12.1458C29.8403 12.4653 30 12.8611 30 13.3333C30 13.8056 29.8403 14.2014 29.5208 14.5208C29.2014 14.8403 28.8056 15 28.3333 15H16.6667ZM16.6667 20C16.1944 20 15.7986 19.8403 15.4792 19.5208C15.1597 19.2014 15 18.8055 15 18.3333C15 17.8611 15.1597 17.4653 15.4792 17.1458C15.7986 16.8264 16.1944 16.6667 16.6667 16.6667H28.3333C28.8056 16.6667 29.2014 16.8264 29.5208 17.1458C29.8403 17.4653 30 17.8611 30 18.3333C30 18.8055 29.8403 19.2014 29.5208 19.5208C29.2014 19.8403 28.8056 20 28.3333 20H16.6667Z" fill="white"/>
</g>
</svg>