<svg xmlns="http://www.w3.org/2000/svg" width="40" height="40" viewBox="0 0 40 40" fill="none">
<mask id="mask0_1013_185" style="mask-type:alpha" maskUnits="userSpaceOnUse" x="0" y="0" width="40" height="40">
<rect width="40" height="40" fill="#D9D9D9"/>
</mask>
<g mask="url(#mask0_1013_185)">
<path d="M18.75 22.5C19.8056 22.5 20.6944 22.1389 21.4167 21.4167C22.1389 20.6944 22.5 19.8056 22.5 18.75C22.5 17.6944 22.1389 16.8056 21.4167 16.0833C20.6944 15.3611 19.8056 15 18.75 15C17.6944 15 16.8056 15.3611 16.0833 16.0833C15.3611 16.8056 15 17.6944 15 18.75C15 19.8056 15.3611 20.6944 16.0833 21.4167C16.8056 22.1389 17.6944 22.5 18.75 22.5ZM18.75 25.8333C16.7778 25.8333 15.1042 25.1458 13.7292 23.7708C12.3542 22.3958 11.6667 20.7222 11.6667 18.75C11.6667 16.7778 12.3542 15.1042 13.7292 13.7292C15.1042 12.3542 16.7778 11.6667 18.75 11.6667C20.7222 11.6667 22.3958 12.3542 23.7708 13.7292C25.1458 15.1042 25.8333 16.7778 25.8333 18.75C25.8333 19.3889 25.7431 20.0208 25.5625 20.6458C25.3819 21.2708 25.1111 21.8611 24.75 22.4167L28 25.6667C28.3333 26 28.4931 26.3889 28.4792 26.8333C28.4653 27.2778 28.2917 27.6667 27.9583 28C27.625 28.3056 27.2361 28.4653 26.7917 28.4792C26.3472 28.4931 25.9583 28.3333 25.625 28L22.4167 24.7917C21.8611 25.1528 21.2708 25.4167 20.6458 25.5833C20.0208 25.75 19.3889 25.8333 18.75 25.8333ZM8.33333 35C7.41667 35 6.63194 34.6736 5.97917 34.0208C5.32639 33.3681 5 32.5833 5 31.6667V26.6667C5 26.1944 5.15972 25.7986 5.47917 25.4792C5.79861 25.1597 6.19444 25 6.66667 25C7.13889 25 7.53472 25.1597 7.85417 25.4792C8.17361 25.7986 8.33333 26.1944 8.33333 26.6667V31.6667H13.3333C13.8056 31.6667 14.2014 31.8264 14.5208 32.1458C14.8403 32.4653 15 32.8611 15 33.3333C15 33.8056 14.8403 34.2014 14.5208 34.5208C14.2014 34.8403 13.8056 35 13.3333 35H8.33333ZM31.6667 35H26.6667C26.1944 35 25.7986 34.8403 25.4792 34.5208C25.1597 34.2014 25 33.8056 25 33.3333C25 32.8611 25.1597 32.4653 25.4792 32.1458C25.7986 31.8264 26.1944 31.6667 26.6667 31.6667H31.6667V26.6667C31.6667 26.1944 31.8264 25.7986 32.1458 25.4792C32.4653 25.1597 32.8611 25 33.3333 25C33.8056 25 34.2014 25.1597 34.5208 25.4792C34.8403 25.7986 35 26.1944 35 26.6667V31.6667C35 32.5833 34.6736 33.3681 34.0208 34.0208C33.3681 34.6736 32.5833 35 31.6667 35ZM5 13.3333V8.33333C5 7.41667 5.32639 6.63194 5.97917 5.97917C6.63194 5.32639 7.41667 5 8.33333 5H13.3333C13.8056 5 14.2014 5.15972 14.5208 5.47917C14.8403 5.79861 15 6.19444 15 6.66667C15 7.13889 14.8403 7.53472 14.5208 7.85417C14.2014 8.17361 13.8056 8.33333 13.3333 8.33333H8.33333V13.3333C8.33333 13.8056 8.17361 14.2014 7.85417 14.5208C7.53472 14.8403 7.13889 15 6.66667 15C6.19444 15 5.79861 14.8403 5.47917 14.5208C5.15972 14.2014 5 13.8056 5 13.3333ZM31.6667 13.3333V8.33333H26.6667C26.1944 8.33333 25.7986 8.17361 25.4792 7.85417C25.1597 7.53472 25 7.13889 25 6.66667C25 6.19444 25.1597 5.79861 25.4792 5.47917C25.7986 5.15972 26.1944 5 26.6667 5H31.6667C32.5833 5 33.3681 5.32639 34.0208 5.97917C34.6736 6.63194 35 7.41667 35 8.33333V13.3333C35 13.8056 34.8403 14.2014 34.5208 14.5208C34.2014 14.8403 33.8056 15 33.3333 15C32.8611 15 32.4653 14.8403 32.1458 14.5208C31.8264 14.2014 31.6667 13.8056 31.6667 13.3333Z" fill="white"/>
</g>
</svg>